<svg width="24" height="28" viewBox="0 0 24 28" fill="none" xmlns="http://www.w3.org/2000/svg">
<path d="M14.4259 21.9288L14.4261 21.9284C14.6608 21.4918 15.0938 21.1341 15.5554 20.979C19.8179 19.5447 22.6651 15.7177 22.7488 11.5013C22.7225 11.2752 22.7008 11.0653 22.6801 10.8652C22.6342 10.4218 22.5933 10.0262 22.5179 9.60702L14.4259 21.9288ZM14.4259 21.9288C13.8463 23.0077 13.2742 24.0952 12.7051 25.1769C12.461 25.641 12.2174 26.1041 11.974 26.565C11.5174 25.7221 11.0816 24.8952 10.6421 24.0613C10.271 23.357 9.89712 22.6477 9.50578 21.9192L9.50561 21.9189M14.4259 21.9288L9.50561 21.9189M9.50561 21.9189C9.24825 21.4402 8.79121 21.1296 8.41292 20.9875L8.41004 20.9865M9.50561 21.9189L8.41004 20.9865M8.41004 20.9865C4.35561 19.4757 1.99282 16.7894 1.36846 12.8149L1.36846 12.8149M8.41004 20.9865L1.36846 12.8149M1.36846 12.8149C0.553222 7.62573 4.05008 2.74064 9.56442 1.51456L9.56456 1.51453M1.36846 12.8149L9.56456 1.51453M9.56456 1.51453C15.5477 0.183533 21.5085 4.00784 22.5178 9.6066L9.56456 1.51453ZM11.845 26.79C11.845 26.79 11.8453 26.7897 11.8461 26.7892L11.845 26.79Z" stroke="#E9550F" stroke-width="2.5"/>
<path d="M5 11.6562C5.83041 10.8242 6.65898 9.99553 7.48618 9.16635C8.47688 8.173 9.46896 7.18195 10.4542 6.18352C10.574 6.06177 10.6319 6.05855 10.7545 6.18214C12.5141 7.95579 14.2783 9.72529 16.0461 11.4906C16.1719 11.6165 16.1834 11.6894 16.0512 11.8213C14.2773 13.5917 12.5091 15.3681 10.7403 17.1436C10.6608 17.2234 10.6112 17.2917 10.4909 17.1704C8.66657 15.3312 6.83627 13.4981 5 11.6562ZM10.6053 7.75103C10.5492 7.80406 10.4992 7.84926 10.4519 7.89676C9.24483 9.10686 8.04055 10.3197 6.828 11.5243C6.69573 11.6557 6.70996 11.7194 6.83306 11.8416C7.97946 12.9825 9.11944 14.1294 10.2613 15.275C10.6048 15.6199 10.6048 15.6199 10.9451 15.2787C12.0925 14.128 13.2393 12.977 14.3871 11.8268C14.4693 11.7447 14.5525 11.6935 14.4184 11.5603C13.1782 10.329 11.9473 9.08887 10.7132 7.85156C10.6815 7.8202 10.648 7.79069 10.6053 7.75103Z" fill="#E9550F"/>
<path d="M12.9098 16.46C14.472 14.9169 16.0185 13.384 17.5737 11.8603C17.7224 11.7146 17.7122 11.6482 17.5705 11.5089C16.0604 10.0276 14.5592 8.53665 13.0501 7.05399C12.9233 6.92947 12.907 6.85845 13.0478 6.7367C13.2459 6.56515 13.4347 6.38022 13.6072 6.1833C13.7294 6.04403 13.796 6.07493 13.9121 6.19068C15.1434 7.41601 16.3807 8.63534 17.6161 9.85652C18.1709 10.4044 18.7215 10.9564 19.2833 11.4978C19.4166 11.6265 19.412 11.7007 19.2819 11.8289C17.4823 13.5994 15.687 15.3744 13.894 17.1518C13.7905 17.2542 13.7322 17.2726 13.6226 17.1568C13.396 16.917 13.1513 16.6938 12.9098 16.46Z" fill="#E9550F"/>
<path d="M12.9097 11.6512C12.1241 12.4183 11.3376 13.1832 10.5567 13.9535C10.4731 14.0355 10.4406 13.9956 10.3836 13.9385C10.1785 13.734 9.97615 13.5255 9.75945 13.3328C9.64716 13.233 9.66804 13.1791 9.76595 13.0861C10.2133 12.6595 10.649 12.2215 11.0972 11.7958C11.2003 11.6983 11.2007 11.6471 11.0977 11.5492C10.6495 11.1235 10.2137 10.6855 9.76641 10.2589C9.65505 10.1528 9.63416 10.0793 9.75992 9.9678C9.95945 9.79052 10.1492 9.60192 10.3335 9.40923C10.4342 9.30405 10.5042 9.29498 10.6142 9.40379C11.3743 10.1537 12.1399 10.8986 12.9097 11.6512Z" fill="#E9550F"/>
<path d="M8.95884 12.5618C8.73001 12.284 8.51822 12.0207 8.30019 11.7644C8.21755 11.6676 8.21215 11.5948 8.2977 11.496C8.48749 11.2769 8.67312 11.0517 8.85501 10.823C8.91814 10.7437 8.95884 10.7452 9.02154 10.8235C9.21839 11.0697 9.41814 11.3135 9.62371 11.5487C9.70261 11.639 9.68019 11.6896 9.61457 11.7674C9.39613 12.0247 9.18392 12.288 8.95884 12.5618Z" fill="#E9550F"/>
</svg>
