<svg width="196" height="62" viewBox="0 0 196 62" fill="none" xmlns="http://www.w3.org/2000/svg">
<path d="M0 30.9042C4.62597 26.2885 9.24171 21.6907 13.8498 17.0903C19.3687 11.579 24.8953 6.08058 30.3835 0.541182C31.0513 -0.134292 31.3737 -0.152202 32.0569 0.533506C41.8589 10.3739 51.6865 20.1913 61.5346 29.9857C62.2357 30.6842 62.2997 31.0885 61.5628 31.8202C51.6814 41.6427 41.8308 51.4985 31.9775 61.3492C31.5349 61.7918 31.2586 62.1705 30.5882 61.4976C20.4254 51.2938 10.2293 41.1233 0 30.9042ZM31.2253 9.23791C30.9132 9.53215 30.6343 9.78289 30.3707 10.0464C23.6467 16.7602 16.938 23.4894 10.1833 30.1725C9.4464 30.9017 9.52572 31.2548 10.2114 31.9328C16.5977 38.2628 22.9482 44.6261 29.3089 50.9817C31.2228 52.8955 31.2228 52.8955 33.1187 51.0021C39.5101 44.6184 45.899 38.2321 52.2929 31.8509C52.7509 31.3955 53.214 31.1115 52.4669 30.372C45.5587 23.5406 38.7016 16.6604 31.8266 9.79568C31.65 9.6217 31.4633 9.45795 31.2253 9.23791Z" fill="#E9550F"/>
<path d="M44.2256 57.5292C52.7995 48.9681 61.2864 40.4633 69.822 32.0096C70.6382 31.2011 70.5819 30.8326 69.804 30.0599C61.5167 21.8417 53.278 13.5697 44.9957 5.34375C44.2998 4.65292 44.2102 4.2589 44.9829 3.58342C46.0703 2.63162 47.1066 1.60561 48.0533 0.513087C48.7236 -0.259614 49.0895 -0.0881869 49.7266 0.554025C56.4839 7.35226 63.2745 14.1172 70.0548 20.8924C73.0995 23.9321 76.1213 26.9947 79.2044 29.9985C79.9361 30.7124 79.9106 31.1243 79.1967 31.8356C69.3205 41.6581 59.4672 51.5062 49.6268 61.3671C49.0588 61.9351 48.739 62.0375 48.1377 61.3953C46.8942 60.0648 45.5509 58.8264 44.2256 57.5292Z" fill="#E9550F"/>
<path d="M178.583 20.5241C178.583 23.8119 178.553 26.913 178.604 30.0115C178.617 30.8328 178.415 31.0989 177.565 31.063C175.864 30.9914 174.155 31.017 172.451 31.0554C171.842 31.0682 171.66 30.8993 171.662 30.2775C171.685 24.4004 171.685 18.5233 171.662 12.6461C171.66 12.0398 171.816 11.8453 172.44 11.8581C174.4 11.8965 176.363 11.9195 178.323 11.853C179.338 11.8197 179.753 12.5899 180.208 13.1579C181.915 15.2866 184.008 17.0291 185.858 19.012C186.792 20.015 187.713 21.0282 188.818 22.2333C188.818 18.9327 188.844 15.8879 188.8 12.8457C188.79 12.0807 188.946 11.8172 189.767 11.8504C191.556 11.9221 193.347 11.899 195.138 11.8581C195.788 11.8427 196.003 12.0014 196 12.6922C195.972 18.5258 195.974 24.362 195.997 30.1957C196 30.8404 195.859 31.0784 195.163 31.0579C193.416 31.0068 191.668 31.0119 189.921 31.0554C189.232 31.0733 188.757 30.8635 188.263 30.3799C185.018 27.2123 182.13 23.6942 178.583 20.5241Z" fill="black"/>
<path d="M106.64 11.643C109.386 11.4691 112.011 11.8554 114.5 12.9096C117.223 14.0635 119.559 16.9445 119.48 20.1735C119.436 21.921 119.679 23.6762 119.001 25.393C118.067 27.7623 116.473 29.3691 114.101 30.2953C111.323 31.3802 108.426 31.6795 105.504 31.5235C102.355 31.3546 99.223 30.8838 96.6925 28.7295C95.2827 27.5295 94.2747 25.9738 94.0546 24.1368C93.7808 21.8621 93.5403 19.5312 94.4896 17.318C95.7586 14.3526 98.2175 12.8916 101.196 12.1369C102.997 11.684 104.829 11.4921 106.64 11.643ZM106.837 25.9278C107.505 25.979 108.321 25.9048 109.14 25.6847C110.532 25.3112 111.927 23.8911 112.067 22.6169C112.351 20.0302 111.788 18.6025 110.118 17.7812C108.424 16.9496 106.663 16.7552 104.821 17.2336C103.424 17.5969 102.055 18.0498 101.603 19.585C101.098 21.2967 100.988 23.0365 102.329 24.495C103.496 25.7666 105.049 25.9738 106.837 25.9278Z" fill="black"/>
<path d="M157.989 31.045C155.09 31.045 152.191 31.0219 149.292 31.0629C148.571 31.0731 148.374 30.871 148.379 30.1495C148.407 24.3593 148.407 18.5666 148.379 12.7739C148.377 12.0549 148.563 11.8554 149.29 11.8579C155.088 11.8886 160.886 11.8861 166.681 11.8579C167.397 11.8554 167.64 12.0345 167.597 12.7662C167.523 14.0353 168.024 15.6984 167.395 16.4737C166.737 17.2822 165.005 16.6963 163.746 16.7167C161.231 16.7577 158.713 16.7961 156.203 16.6988C155.116 16.6553 155.3 17.2541 155.303 17.8784C155.305 18.495 155.106 19.0911 156.198 19.063C159.478 18.976 162.764 19.0604 166.044 19.0118C166.875 18.999 167.149 19.2114 167.088 20.0557C167.001 21.2813 167.507 22.9342 166.888 23.6327C166.177 24.4361 164.491 23.8553 163.232 23.8783C160.888 23.9192 158.539 23.9602 156.201 23.8604C155.108 23.8143 155.3 24.4207 155.3 25.0399C155.3 25.6591 155.108 26.2476 156.198 26.222C159.65 26.1376 163.104 26.2194 166.555 26.1708C167.39 26.158 167.658 26.3755 167.599 27.2147C167.512 28.4377 168.019 30.0932 167.4 30.7891C166.689 31.59 165.002 31.0066 163.741 31.0347C161.827 31.0757 159.908 31.045 157.989 31.045Z" fill="black"/>
<path d="M122.299 21.356C122.299 18.5492 122.325 15.7398 122.284 12.933C122.273 12.1603 122.391 11.843 123.292 11.8533C127.849 11.907 132.406 11.8021 136.96 11.9147C138.669 11.9582 140.391 12.2243 142.039 12.8818C145.02 14.069 145.526 17.2852 145.252 19.6519C145.032 21.5299 144.382 23.2877 142.533 24.2472C141.166 24.9534 139.698 25.3832 138.16 25.4114C135.563 25.46 132.963 25.4497 130.366 25.4088C129.65 25.396 129.417 25.5853 129.448 26.3171C129.507 27.6322 129.435 28.955 129.479 30.2727C129.499 30.8766 129.33 31.0761 128.703 31.0633C126.83 31.0224 124.955 31.0045 123.082 31.071C122.312 31.0966 122.289 30.7435 122.291 30.1678C122.309 27.2254 122.299 24.2907 122.299 21.356ZM133.199 20.3095C134.176 20.3095 135.151 20.2992 136.128 20.312C137.098 20.3248 137.794 19.8643 137.866 18.9278C137.927 18.127 137.556 17.4669 136.599 17.2059C135.013 16.7709 133.419 17.0447 131.83 17.0038C129.386 16.9423 129.407 16.9858 129.445 19.46C129.456 20.0818 129.555 20.376 130.269 20.3274C131.244 20.2609 132.224 20.3095 133.199 20.3095Z" fill="black"/>
<path d="M103.601 47.6783C102.127 48.9524 100.513 48.9729 98.9364 48.4382C97.2119 47.8522 96.4111 46.4834 96.1808 44.6668C95.948 42.8246 96.2345 41.1973 97.3731 39.7031C98.5245 38.1935 101.459 38.0476 103.012 39.0327C103.386 39.2707 103.506 39.7977 104.023 38.9227C104.391 38.2958 105.763 38.6591 106.658 38.7666C107.239 38.8357 106.932 39.5495 106.937 39.9589C106.968 42.5124 106.996 45.0685 106.937 47.622C106.894 49.5281 106.492 51.3678 104.895 52.6394C102.836 54.282 98.9774 54.1183 97.2708 52.184C96.6413 51.4727 96.6157 50.6616 96.7897 49.8352C96.8511 49.5384 99.1027 49.6407 99.4225 49.9912C100.328 50.9763 101.306 51.2168 102.49 50.4851C103.524 49.848 103.68 48.8859 103.601 47.6783ZM99.2741 43.6049C99.2921 44.897 100.385 46.1124 101.487 46.0663C102.698 46.0177 103.654 44.8663 103.624 43.5026C103.596 42.2821 102.503 41.2433 101.278 41.2664C100.205 41.2868 99.2588 42.3922 99.2741 43.6049Z" fill="black"/>
<path d="M145.337 39.7652C146.785 38.033 148.558 38.207 150.147 38.6164C152.035 39.1025 152.785 40.7861 152.974 42.595C153.153 44.3068 153.041 45.9929 151.831 47.4436C150.462 49.0862 148.041 49.621 145.58 47.9912C145.58 49.6005 145.544 51.1587 145.598 52.7144C145.621 53.4052 145.388 53.5433 144.738 53.5536C142.254 53.592 142.254 53.615 142.254 51.1613C142.254 47.331 142.279 43.4982 142.233 39.668C142.223 38.8697 142.433 38.5883 143.218 38.7034C143.594 38.7571 143.986 38.7341 144.367 38.7085C145.035 38.6599 145.631 38.6573 145.337 39.7652ZM145.583 43.598C145.588 45.0053 146.578 46.1387 147.783 46.1234C148.914 46.108 149.978 44.8159 149.932 43.5161C149.889 42.2931 148.788 41.2415 147.578 41.2671C146.442 41.2927 145.577 42.3034 145.583 43.598Z" fill="black"/>
<path d="M123.63 38.4547C126.997 38.4547 128.598 40.2943 128.726 43.9301C128.818 46.5911 126.521 49.1471 123.397 48.9732C120.234 48.7966 118.249 46.847 118.19 43.5847C118.139 40.4939 120.419 38.1298 123.63 38.4547ZM123.448 46.1229C124.704 46.3199 125.605 44.9817 125.62 43.5566C125.636 42.1263 124.794 41.2615 123.433 41.2666C122.302 41.2717 121.278 42.4231 121.276 43.6896C121.278 44.9433 122.33 46.1229 123.448 46.1229Z" fill="black"/>
<path d="M139.954 43.815C139.954 45.1762 139.925 46.5374 139.966 47.8986C139.984 48.4948 139.8 48.8734 139.206 48.6585C138.436 48.3796 137.359 49.4389 136.832 48.0854C136.743 47.8577 136.528 48.2056 136.377 48.2977C133.688 49.948 130.19 48.5843 130.469 44.8206C130.597 43.0858 130.53 41.3332 130.471 39.5908C130.446 38.8385 130.709 38.6953 131.405 38.6953C133.56 38.6953 133.519 38.6646 133.575 40.7754C133.613 42.1545 133.34 43.5413 133.792 44.9153C134.025 45.624 134.343 46.1562 135.108 46.1024C135.832 46.0513 136.4 45.7135 136.65 44.8973C137.139 43.3136 136.74 41.7068 136.896 40.1204C136.942 39.6522 136.599 38.8948 137.152 38.7746C137.999 38.5929 138.925 38.6927 139.805 38.7951C140.094 38.8283 139.948 39.3221 139.951 39.601C139.961 41.0082 139.954 42.4104 139.954 43.815Z" fill="black"/>
<path d="M109.253 43.7003C109.253 42.2981 109.278 40.8986 109.24 39.4965C109.225 38.9105 109.368 38.5651 109.997 38.7212C110.709 38.8978 111.568 38.2376 112.167 39.1485C112.336 39.4044 112.671 39.0845 112.812 38.9515C113.398 38.3963 114.094 38.4449 114.808 38.45C116.614 38.4628 117.724 39.7651 117.448 41.5408C117.405 41.8171 117.394 42.0679 117.044 42.0244C116.166 41.9118 115.181 42.3928 114.442 41.4871C114.101 41.07 113.518 41.1417 113.152 41.3745C112.62 41.7122 112.31 42.27 112.315 42.9634C112.331 44.5344 112.264 46.1079 112.341 47.6738C112.385 48.5437 112.077 48.7126 111.279 48.6972C109.25 48.6614 109.25 48.6998 109.25 46.6273C109.253 45.6525 109.253 44.6751 109.253 43.7003Z" fill="black"/>
<path d="M44.5097 30.9248C40.1779 35.254 35.8411 39.5704 31.5349 43.9174C31.0744 44.3805 30.8953 44.1554 30.5806 43.833C29.4497 42.6791 28.3341 41.5021 27.1392 40.4147C26.5201 39.8518 26.6352 39.5473 27.1751 39.0228C29.6416 36.6152 32.0441 34.1435 34.5157 31.741C35.0837 31.1909 35.0863 30.9018 34.5183 30.3491C32.0467 27.9466 29.6441 25.475 27.1776 23.0673C26.5635 22.4686 26.4484 22.0541 27.1418 21.4247C28.242 20.4243 29.2885 19.3599 30.3042 18.2725C30.8595 17.6789 31.2458 17.6277 31.8522 18.2418C36.0432 22.4737 40.2649 26.6775 44.5097 30.9248Z" fill="#E9550F"/>
<path d="M22.3982 35.6737C20.9884 34.2562 19.6835 32.9129 18.3402 31.6055C17.831 31.1116 17.7978 30.7406 18.3249 30.2366C19.4941 29.1185 20.6378 27.9697 21.7585 26.8029C22.1474 26.3987 22.3982 26.4064 22.7845 26.8055C23.9973 28.0618 25.228 29.3053 26.4945 30.5053C26.9806 30.9658 26.8425 31.2242 26.4382 31.6208C25.0924 32.9334 23.7849 34.2766 22.3982 35.6737Z" fill="#E9550F"/>
</svg>
