<svg width="49" height="49" viewBox="0 0 49 49" fill="none" xmlns="http://www.w3.org/2000/svg">
<circle cx="24.1255" cy="24.1255" r="23.1255" transform="matrix(-1 0 0 1 48.251 0)" stroke="#2D2D2D" stroke-width="2"/>
<path d="M14.8889 24.8327C14.4983 24.4422 14.4983 23.809 14.8889 23.4185L21.2528 17.0545C21.6434 16.664 22.2765 16.664 22.667 17.0545C23.0576 17.4451 23.0576 18.0782 22.667 18.4688L17.0102 24.1256L22.667 29.7825C23.0576 30.173 23.0576 30.8062 22.667 31.1967C22.2765 31.5872 21.6434 31.5872 21.2528 31.1967L14.8889 24.8327ZM32.6553 25.1256L15.596 25.1256L15.596 23.1256L32.6553 23.1256L32.6553 25.1256Z" fill="#2D2D2D"/>
</svg>
