<svg width="49" height="49" viewBox="0 0 49 49" fill="none" xmlns="http://www.w3.org/2000/svg">
<circle cx="24.1255" cy="24.1255" r="23.1255" stroke="white" stroke-width="2"/>
<path d="M30.1567 31.1568C30.709 31.1568 31.1567 30.7091 31.1567 30.1568L31.1567 21.1568C31.1567 20.6045 30.709 20.1568 30.1567 20.1568C29.6045 20.1568 29.1567 20.6045 29.1567 21.1568L29.1567 29.1568L21.1567 29.1568C20.6045 29.1568 20.1567 29.6045 20.1567 30.1568C20.1567 30.7091 20.6045 31.1568 21.1567 31.1568L30.1567 31.1568ZM17.3869 18.8011L29.4496 30.8639L30.8638 29.4497L18.8011 17.3869L17.3869 18.8011Z" fill="white"/>
<path d="M30.1567 31.1568C30.709 31.1568 31.1567 30.7091 31.1567 30.1568L31.1567 21.1568C31.1567 20.6045 30.709 20.1568 30.1567 20.1568C29.6045 20.1568 29.1567 20.6045 29.1567 21.1568L29.1567 29.1568L21.1567 29.1568C20.6045 29.1568 20.1567 29.6045 20.1567 30.1568C20.1567 30.7091 20.6045 31.1568 21.1567 31.1568L30.1567 31.1568ZM17.3869 18.8011L29.4496 30.8639L30.8638 29.4497L18.8011 17.3869L17.3869 18.8011Z" fill="white"/>
</svg>
