<svg width="202" height="77" viewBox="0 0 202 77" fill="none" xmlns="http://www.w3.org/2000/svg">
<path d="M144.449 13.4351H139.791V32.4437H152.468V28.7119H144.449V13.4351Z" fill="black"/>
<path d="M125.005 13.4351L118.502 32.4437H123.512L124.779 28.4544H131.437L132.708 32.4437H137.717L131.211 13.4351H125.005ZM125.886 24.9647L128.026 18.2276H128.178L130.322 24.9647H125.886Z" fill="black"/>
<path d="M159.544 13.4351H154.881V32.4437H167.562V28.7119H159.544V13.4351Z" fill="black"/>
<path d="M118.514 16.5827C117.941 15.5912 117.13 14.8225 116.078 14.2729C115.029 13.7157 113.786 13.439 112.339 13.439H104.375V32.4437H109.037V26.5405H112.199C113.672 26.5405 114.947 26.2715 116.019 25.7334C117.091 25.1954 117.918 24.4383 118.495 23.4583C119.079 22.4744 119.372 21.3253 119.372 20.0147C119.372 18.7119 119.087 17.5666 118.514 16.5827ZM114.175 21.5482C113.93 21.9825 113.571 22.3168 113.092 22.559C112.62 22.8011 112.035 22.9202 111.33 22.9202H109.037V17.14H111.334C112.031 17.14 112.616 17.2591 113.096 17.4936C113.575 17.728 113.934 18.0624 114.179 18.4967C114.425 18.9233 114.546 19.4306 114.546 20.0186C114.542 20.5989 114.421 21.1101 114.175 21.5482Z" fill="black"/>
<path d="M199.162 48.5205C198.347 47.0677 197.24 45.9609 195.849 45.2076C194.461 44.4543 192.905 44.0739 191.178 44.0739C189.448 44.0739 187.888 44.4505 186.5 45.2076C185.113 45.9609 184.013 47.0677 183.195 48.5205C182.384 49.9732 181.982 51.7488 181.982 53.8395C181.982 55.9225 182.388 57.6943 183.195 59.147C184.009 60.5959 185.113 61.6989 186.5 62.4599C187.888 63.2208 189.448 63.6013 191.178 63.6013C192.905 63.6013 194.461 63.2246 195.849 62.4675C197.24 61.7143 198.347 60.6074 199.162 59.1547C199.977 57.7019 200.386 55.9264 200.386 53.8357C200.386 51.7449 199.981 49.9732 199.162 48.5205ZM195.088 56.9717C194.738 57.8249 194.227 58.4706 193.564 58.9125C192.905 59.3507 192.11 59.5697 191.182 59.5697C190.258 59.5697 189.467 59.3507 188.8 58.9125C188.134 58.4744 187.623 57.8249 187.264 56.9717C186.914 56.1185 186.738 55.0732 186.738 53.8357C186.738 52.5981 186.914 51.5528 187.264 50.6996C187.623 49.8464 188.134 49.2007 188.8 48.7587C189.467 48.3206 190.258 48.0977 191.182 48.0977C192.11 48.0977 192.905 48.3168 193.564 48.7587C194.231 49.1969 194.738 49.8425 195.088 50.6996C195.447 51.5528 195.626 52.5981 195.626 53.8357C195.626 55.0732 195.447 56.1185 195.088 56.9717Z" fill="black"/>
<path d="M158.44 54.024C159.025 53.1016 159.318 51.9832 159.318 50.665C159.318 49.366 159.033 48.2438 158.46 47.2983C157.887 46.3452 157.076 45.615 156.02 45.1077C154.971 44.5927 153.727 44.3352 152.281 44.3352H144.317V63.34H148.975V56.8334H151.361L154.885 63.34H159.969L155.973 56.107C157.037 55.6266 157.86 54.931 158.44 54.024ZM148.979 48.0362H151.275C151.973 48.0362 152.558 48.1362 153.034 48.3322C153.509 48.5243 153.872 48.8164 154.117 49.2046C154.363 49.5889 154.484 50.0731 154.484 50.6612C154.484 51.2492 154.363 51.7334 154.117 52.1101C153.872 52.4829 153.513 52.7596 153.034 52.944C152.562 53.1247 151.977 53.2131 151.275 53.2131H148.979V48.0362Z" fill="black"/>
<path d="M129.535 44.3314L123.028 63.34H128.038L129.305 59.3508H135.963L137.234 63.34H142.243L135.737 44.3314H129.535ZM130.416 55.8611L132.556 49.1239H132.708L134.852 55.8611H130.416Z" fill="black"/>
<path d="M169.976 32.4437H183.417V28.7119H174.634V24.8072H182.731V21.0677H174.634V17.1668H183.417V13.4351H169.976V32.4437Z" fill="black"/>
<path d="M171.133 56.2954H174.95C174.934 56.9372 174.786 57.5022 174.494 57.9864C174.186 58.4937 173.733 58.8857 173.137 59.1663C172.548 59.4391 171.827 59.5737 170.973 59.5737C170.007 59.5737 169.184 59.3469 168.506 58.8972C167.828 58.4476 167.309 57.7904 166.954 56.9295C166.596 56.0686 166.416 55.031 166.416 53.8127C166.416 52.5982 166.6 51.5682 166.97 50.7227C167.34 49.8695 167.863 49.22 168.541 48.7742C169.227 48.3284 170.034 48.1055 170.97 48.1055C171.433 48.1055 171.862 48.1631 172.248 48.2707C172.638 48.3745 172.981 48.5321 173.285 48.7434C173.585 48.9548 173.839 49.2123 174.049 49.5121C174.256 49.808 174.412 50.1539 174.521 50.5421H179.238C179.125 49.5966 178.836 48.7242 178.372 47.9325C177.909 47.1408 177.304 46.4567 176.556 45.8802C175.815 45.3038 174.961 44.8579 173.995 44.5428C173.036 44.2277 171.995 44.0701 170.88 44.0701C169.593 44.0701 168.393 44.2853 167.274 44.7196C166.163 45.1539 165.185 45.788 164.339 46.6297C163.497 47.4713 162.842 48.4975 162.37 49.7119C161.898 50.9187 161.664 52.3023 161.664 53.8588C161.664 55.8649 162.054 57.5944 162.83 59.0548C163.61 60.5075 164.693 61.6298 166.085 62.4138C167.477 63.1978 169.095 63.5936 170.935 63.5936C172.591 63.5936 174.057 63.267 175.332 62.6175C176.61 61.968 177.616 61.0379 178.345 59.8234C179.078 58.609 179.448 57.1524 179.448 55.4537V52.9402H171.137V56.2954H171.133Z" fill="black"/>
<path d="M110.831 48.778C111.509 48.3283 112.316 48.1015 113.251 48.1015C113.778 48.1015 114.257 48.1746 114.694 48.3245C115.134 48.4667 115.512 48.6742 115.832 48.9471C116.152 49.2199 116.409 49.5466 116.604 49.9309C116.799 50.3152 116.928 50.7457 116.99 51.2222H121.695C121.582 50.0846 121.29 49.0739 120.818 48.1861C120.346 47.3022 119.734 46.5566 118.982 45.9493C118.23 45.3383 117.356 44.8732 116.366 44.5581C115.376 44.2353 114.296 44.0739 113.127 44.0739C111.411 44.0739 109.868 44.4505 108.484 45.2076C107.104 45.9609 106.008 47.0677 105.198 48.5205C104.387 49.9732 103.985 51.7488 103.985 53.8395C103.985 55.9225 104.383 57.6943 105.182 59.147C105.977 60.5997 107.065 61.7066 108.437 62.4675C109.817 63.2208 111.38 63.6013 113.127 63.6013C114.452 63.6013 115.626 63.4014 116.647 63.0056C117.676 62.6097 118.549 62.0794 119.263 61.4106C119.976 60.7381 120.541 59.9925 120.947 59.1739C121.36 58.3553 121.609 57.529 121.691 56.6873L116.986 56.6604C116.904 57.1178 116.756 57.529 116.542 57.8941C116.335 58.2515 116.066 58.559 115.742 58.8126C115.423 59.0586 115.049 59.2508 114.624 59.3776C114.203 59.5083 113.735 59.5736 113.22 59.5736C112.304 59.5736 111.509 59.3622 110.838 58.9318C110.172 58.4975 109.657 57.8595 109.287 57.0102C108.924 56.157 108.741 55.1001 108.741 53.8357C108.741 52.6212 108.92 51.5912 109.279 50.7342C109.642 49.8848 110.16 49.2315 110.831 48.778Z" fill="black"/>
<path d="M185.705 17.1668H191.56V32.4437H196.153V17.1668H202V13.4351H185.705V17.1668Z" fill="black"/>
<path d="M61.0044 0.618652H44.032V8.51138H61.0044C71.5272 8.51138 80.0582 16.9219 80.0582 27.2961C80.0582 37.6703 71.5272 46.0808 61.0044 46.0808H44.6725H44.032H36.6667V62.182H44.6725V53.9735H61.0044C75.9497 53.9735 88.0641 42.0302 88.0641 27.2961C88.0641 12.5619 75.9497 0.618652 61.0044 0.618652Z" fill="#E9550F"/>
<path d="M8.00582 49.7114C8.00582 39.3372 16.5368 30.9267 27.0597 30.9267H44.032V23.0339H27.0597C12.1144 23.0339 0 34.9772 0 49.7114C0 64.4455 12.1144 76.3888 27.0597 76.3888H44.032V68.4961H27.0597C16.5368 68.4961 8.00582 60.0856 8.00582 49.7114Z" fill="#E9550F"/>
</svg>
