<svg width="29" height="24" viewBox="0 0 29 24" fill="none" xmlns="http://www.w3.org/2000/svg">
<path d="M28.9796 6.79846C28.9765 6.24249 28.8946 5.65582 28.7434 5.10143C27.9126 2.06095 25.2107 0.0119216 22.0198 0.00325926C20.2803 -0.00146564 18.5124 0.00010933 16.8036 0.000896813C16.0358 0.0016843 15.268 0.0016843 14.5009 0.0016843H12.4377C10.6391 0.0016843 8.84052 0.0016843 7.04269 0.000896813C7.04112 0.000896813 7.03875 0.000896813 7.03718 0.000896813C6.17173 0.000896813 5.33937 0.140281 4.56212 0.415113C1.90672 1.35458 0.0372373 3.94147 0.0159753 6.70632C-0.0115867 10.3343 0.00180056 13.9236 0.0167628 16.6459C0.0199127 17.2082 0.0986611 17.8035 0.24592 18.3682C0.610525 19.7707 1.44683 21.0488 2.59892 21.9678C3.85653 22.971 5.41575 23.5002 7.11042 23.5002C7.12144 23.5002 7.13246 23.5002 7.14349 23.5002C9.67997 23.49 12.259 23.4907 14.7537 23.4923C17.0807 23.4931 19.4873 23.4939 21.8537 23.486C22.5601 23.4837 23.2192 23.4049 23.8129 23.2529C25.3037 22.871 26.5865 22.0402 27.5244 20.8503C28.4638 19.6581 28.9678 18.2162 28.982 16.6806C29.0135 13.307 28.9977 9.94918 28.9796 6.79846ZM22.2986 5.09513C20.5787 6.81893 18.8006 8.60101 17.0429 10.3445C15.62 11.7557 13.4103 11.7777 12.0117 10.3957C10.2572 8.66164 8.48536 6.88508 6.7718 5.16758C6.1615 4.5557 5.5512 3.94462 4.94169 3.33353C5.52442 2.99727 6.12212 2.8319 6.75605 2.82954C11.9574 2.81458 17.1721 2.81458 22.2529 2.83033C22.8821 2.8319 23.4767 2.99727 24.0579 3.33274C23.4712 3.9202 22.8853 4.50767 22.2986 5.09513ZM9.86267 12.2463C10.9273 13.3157 12.1653 13.9535 13.5418 14.1425C15.6617 14.4339 17.4863 13.848 18.966 12.4014C20.1614 11.2328 21.3599 10.0295 22.5191 8.86639C23.0199 8.36397 23.52 7.86156 24.0216 7.36072L25.0225 6.35983C25.3194 6.06295 25.6163 5.76607 25.914 5.4684C26.0242 5.75189 26.0974 6.05113 26.136 6.37164C26.1785 6.72522 26.1848 7.08982 26.1848 7.39931L26.1864 8.60179C26.1904 11.1729 26.1935 13.8323 26.1841 16.4467C26.1778 18.0461 25.5249 19.2344 24.1862 20.0786C23.5665 20.47 22.8483 20.6684 22.0529 20.6684H19.7606C15.5026 20.6692 11.2455 20.6692 6.98757 20.6676C4.67394 20.6668 2.84304 18.8816 2.8202 16.6034C2.79264 13.8638 2.80209 11.0761 2.81154 8.38051L2.81627 6.91185C2.81784 6.39684 2.90525 5.92592 3.08795 5.46761C3.88016 6.2606 4.67237 7.05203 5.46536 7.84423C6.90724 9.28612 8.39874 10.7768 9.86267 12.2463Z" fill="#E9550F"/>
</svg>
