<svg width="30" height="30" viewBox="0 0 30 30" fill="none" xmlns="http://www.w3.org/2000/svg">
<circle cx="15" cy="15" r="14" stroke="#2D2D2D" stroke-width="2"/>
<path d="M13.648 17.464C13.648 17.0373 13.7173 16.664 13.856 16.344C14.0053 16.0133 14.1813 15.736 14.384 15.512C14.5973 15.288 14.8747 15.0213 15.216 14.712C15.6427 14.3387 15.9573 14.0187 16.16 13.752C16.3627 13.4747 16.464 13.144 16.464 12.76C16.464 12.2373 16.2613 11.8213 15.856 11.512C15.4507 11.192 14.8907 11.032 14.176 11.032C12.928 11.032 11.9733 11.4533 11.312 12.296L10.144 11.464C10.592 10.888 11.1627 10.4453 11.856 10.136C12.56 9.82667 13.3707 9.672 14.288 9.672C15.4507 9.672 16.3733 9.928 17.056 10.44C17.7387 10.9413 18.08 11.6347 18.08 12.52C18.08 12.9573 18.0053 13.3467 17.856 13.688C17.7173 14.0187 17.5467 14.296 17.344 14.52C17.1413 14.744 16.8693 15.0107 16.528 15.32C16.0907 15.7147 15.7653 16.0613 15.552 16.36C15.3493 16.6587 15.248 17.0267 15.248 17.464H13.648ZM14.464 21.096C14.1653 21.096 13.9147 21 13.712 20.808C13.52 20.6053 13.424 20.36 13.424 20.072C13.424 19.784 13.52 19.544 13.712 19.352C13.9147 19.1493 14.1653 19.048 14.464 19.048C14.7627 19.048 15.008 19.1493 15.2 19.352C15.392 19.544 15.488 19.784 15.488 20.072C15.488 20.36 15.3867 20.6053 15.184 20.808C14.992 21 14.752 21.096 14.464 21.096Z" fill="black"/>
</svg>
