<svg width="26" height="26" viewBox="0 0 26 26" fill="none" xmlns="http://www.w3.org/2000/svg">
<path d="M14.1051 25.5988C13.5056 25.5988 12.9054 25.5988 12.3058 25.5988C12.2337 25.5827 12.1616 25.562 12.0888 25.5507C11.5714 25.4746 11.0466 25.4332 10.5372 25.3217C7.50677 24.656 5.00909 23.1124 3.11163 20.6582C0.75884 17.6144 -0.0590295 14.1619 0.639331 10.3891C1.22286 7.23843 2.82455 4.66064 5.35827 2.69908C8.30928 0.415058 11.6609 -0.396135 15.3363 0.177375C17.3125 0.485829 19.1165 1.25496 20.7262 2.44872C23.4729 4.48504 25.1768 7.18301 25.801 10.5506C25.8838 10.998 25.9345 11.4513 26 11.902C26 12.5015 26 13.1017 26 13.7013C25.9459 14.1032 25.9052 14.5078 25.8357 14.907C25.333 17.7799 24.0237 20.2229 21.8826 22.2051C20.0566 23.8963 17.9121 24.9672 15.4578 25.4011C15.0091 25.4806 14.5558 25.5333 14.1051 25.5988ZM16.6362 19.2708C16.6442 19.2494 16.6516 19.2281 16.6596 19.2067C16.9714 19.2401 17.195 19.0985 17.3446 18.8422C17.432 18.6933 17.5195 18.533 17.5549 18.3668C17.7144 17.6204 17.8713 16.8726 18.0002 16.1202C18.2746 14.5151 18.5403 12.9088 18.7894 11.2997C18.9262 10.4124 19.0404 9.52112 19.1292 8.62781C19.194 7.98085 18.8468 7.56758 18.1958 7.75319C17.5115 7.94814 16.8285 8.16713 16.1728 8.44153C13.2238 9.67535 10.2842 10.9305 7.34319 12.1824C6.77035 12.4261 6.20218 12.6811 5.64136 12.9515C5.4424 13.0476 5.2381 13.1885 5.26146 13.4582C5.28416 13.714 5.50582 13.7947 5.69944 13.8895C5.75886 13.9183 5.82296 13.939 5.88572 13.9583C6.49661 14.1459 7.11018 14.3242 7.71708 14.5218C8.57367 14.8009 9.33279 14.6407 10.0739 14.1312C11.6575 13.0423 13.2666 11.9908 14.8669 10.9259C15.0325 10.8157 15.1987 10.6975 15.381 10.6227C15.4671 10.5874 15.6321 10.6127 15.6861 10.6755C15.7315 10.7276 15.7048 10.9052 15.6467 10.9739C15.4271 11.2343 15.1914 11.4827 14.945 11.7184C13.9102 12.7085 12.8673 13.6913 11.8318 14.6814C11.6762 14.8303 11.528 14.9918 11.4045 15.1674C11.2209 15.4285 11.2436 15.6795 11.4506 15.9205C11.5367 16.0207 11.6322 16.1202 11.741 16.1936C13.083 17.1056 14.4223 18.021 15.7763 18.9136C16.0313 19.0812 16.3478 19.1546 16.6362 19.2708Z" fill="#2D2D2D"/>
</svg>
