<svg width="26" height="26" viewBox="0 0 26 26" fill="none" xmlns="http://www.w3.org/2000/svg">
<path d="M0.679529 24.9098C1.24328 23.4219 1.782 21.9873 2.33408 20.5578C2.40997 20.3612 2.39245 20.2287 2.27236 20.0546C0.629493 17.6753 -0.130231 15.0295 0.0182111 12.1512C0.308424 6.52875 4.12289 1.83603 9.5994 0.416469C16.3285 -1.32883 23.1577 2.56497 25.0824 9.22209C26.9505 15.6826 23.6105 22.3722 17.3151 24.7315C13.3897 26.2027 9.58606 25.7853 5.99509 23.5993C5.82664 23.4969 5.6857 23.4794 5.50473 23.5318C3.99279 23.9725 2.47835 24.4074 0.964739 24.8431C0.888016 24.8664 0.808791 24.8806 0.679529 24.9098ZM16.6813 19.9604C17.3618 19.9513 17.9222 19.7672 18.3758 19.2881C18.7403 18.9033 19.1339 18.5459 19.5092 18.171C20.0904 17.5887 20.1188 16.6873 19.55 16.0958C18.9012 15.421 18.2407 14.7562 17.5627 14.1114C16.813 13.3983 15.7447 13.6532 15.3611 14.6154C15.0776 15.3252 14.3837 15.6993 13.6732 15.4335C12.0045 14.8087 10.7995 13.6624 10.1281 12.0121C9.77787 11.1498 10.1006 10.5284 10.9637 10.1701C11.8486 9.80274 12.1037 8.73224 11.4466 8.03995C10.7803 7.33933 10.0923 6.65871 9.39425 5.98808C8.84385 5.45908 8.03075 5.47741 7.48452 6.00808C7.03669 6.44378 6.59887 6.88864 6.15855 7.331C5.87667 7.61342 5.72823 7.95914 5.67319 8.35152C5.5431 9.28207 5.77827 10.156 6.16105 10.9782C7.83895 14.5771 10.5101 17.2454 13.9676 19.1507C14.8191 19.6189 15.7372 19.9163 16.6813 19.9604Z" fill="#2D2D2D"/>
</svg>
